<mxfile host="app.diagrams.net" modified="2023-02-16T15:12:33.811Z" agent="5.0 (Windows NT 10.0; Win64; x64) AppleWebKit/537.36 (KHTML, like Gecko) Chrome/108.0.0.0 Safari/537.36 OPR/94.0.0.0" etag="lSc23A3KSss_bvndjHjX" version="20.8.20" type="github">
  <diagram name="Pagina-1" id="aZuuLW9ZHt0GsZtGjZCy">
    <mxGraphModel dx="961" dy="523" grid="1" gridSize="10" guides="1" tooltips="1" connect="1" arrows="1" fold="1" page="1" pageScale="1" pageWidth="827" pageHeight="1169" math="0" shadow="0">
      <root>
        <mxCell id="0" />
        <mxCell id="1" parent="0" />
        <mxCell id="RSZGaVY2ZbO_RzUHyv8u-1" value="&lt;h1&gt;Serie For&lt;/h1&gt;&lt;p&gt;Andate a creare una serie di valori int salvati su variabili 2/3 e fate si che tramite un menu che da lo start conti fino all raggiungimento della variabile (1.2.3.4.5.6) .&amp;nbsp;&lt;br&gt;&lt;/p&gt;Far si che il valore da raggiungere sia preso in input&lt;br&gt;&lt;br&gt;Menu vuoi contare o uscire, se contiamo ne prendiamo uno in input fino a che numero vuoi contare.&amp;nbsp;" style="text;html=1;strokeColor=none;fillColor=none;spacing=5;spacingTop=-20;whiteSpace=wrap;overflow=hidden;rounded=0;" vertex="1" parent="1">
          <mxGeometry x="20" y="20" width="180" height="260" as="geometry" />
        </mxCell>
        <mxCell id="RSZGaVY2ZbO_RzUHyv8u-10" value="" style="edgeStyle=orthogonalEdgeStyle;rounded=0;orthogonalLoop=1;jettySize=auto;html=1;" edge="1" parent="1" source="RSZGaVY2ZbO_RzUHyv8u-2" target="RSZGaVY2ZbO_RzUHyv8u-9">
          <mxGeometry relative="1" as="geometry" />
        </mxCell>
        <mxCell id="RSZGaVY2ZbO_RzUHyv8u-2" value="Inizializzazione" style="rhombus;whiteSpace=wrap;html=1;" vertex="1" parent="1">
          <mxGeometry x="310" y="30" width="190" height="80" as="geometry" />
        </mxCell>
        <mxCell id="RSZGaVY2ZbO_RzUHyv8u-25" style="edgeStyle=orthogonalEdgeStyle;rounded=0;orthogonalLoop=1;jettySize=auto;html=1;exitX=0.5;exitY=1;exitDx=0;exitDy=0;entryX=0.5;entryY=0;entryDx=0;entryDy=0;" edge="1" parent="1" source="RSZGaVY2ZbO_RzUHyv8u-9" target="RSZGaVY2ZbO_RzUHyv8u-24">
          <mxGeometry relative="1" as="geometry" />
        </mxCell>
        <mxCell id="RSZGaVY2ZbO_RzUHyv8u-9" value="a, b, c (variabili da cui iniziare a contare)" style="whiteSpace=wrap;html=1;" vertex="1" parent="1">
          <mxGeometry x="345" y="130" width="120" height="30" as="geometry" />
        </mxCell>
        <mxCell id="RSZGaVY2ZbO_RzUHyv8u-18" value="" style="edgeStyle=orthogonalEdgeStyle;rounded=0;orthogonalLoop=1;jettySize=auto;html=1;" edge="1" parent="1" source="RSZGaVY2ZbO_RzUHyv8u-11" target="RSZGaVY2ZbO_RzUHyv8u-17">
          <mxGeometry relative="1" as="geometry" />
        </mxCell>
        <mxCell id="RSZGaVY2ZbO_RzUHyv8u-11" value="Input limiteConta" style="shape=parallelogram;perimeter=parallelogramPerimeter;whiteSpace=wrap;html=1;fixedSize=1;" vertex="1" parent="1">
          <mxGeometry x="325" y="330" width="145" height="40" as="geometry" />
        </mxCell>
        <mxCell id="RSZGaVY2ZbO_RzUHyv8u-34" style="edgeStyle=orthogonalEdgeStyle;rounded=0;orthogonalLoop=1;jettySize=auto;html=1;exitX=0;exitY=0.5;exitDx=0;exitDy=0;entryX=0.5;entryY=0;entryDx=0;entryDy=0;" edge="1" parent="1" source="RSZGaVY2ZbO_RzUHyv8u-15" target="RSZGaVY2ZbO_RzUHyv8u-37">
          <mxGeometry relative="1" as="geometry">
            <mxPoint x="60" y="550" as="targetPoint" />
          </mxGeometry>
        </mxCell>
        <mxCell id="RSZGaVY2ZbO_RzUHyv8u-35" style="edgeStyle=orthogonalEdgeStyle;rounded=0;orthogonalLoop=1;jettySize=auto;html=1;exitX=1;exitY=0.5;exitDx=0;exitDy=0;entryX=0.5;entryY=0;entryDx=0;entryDy=0;" edge="1" parent="1" source="RSZGaVY2ZbO_RzUHyv8u-15" target="RSZGaVY2ZbO_RzUHyv8u-36">
          <mxGeometry relative="1" as="geometry">
            <mxPoint x="330" y="550" as="targetPoint" />
          </mxGeometry>
        </mxCell>
        <mxCell id="RSZGaVY2ZbO_RzUHyv8u-15" value="if variabileScelta = b" style="rhombus;whiteSpace=wrap;html=1;" vertex="1" parent="1">
          <mxGeometry x="150" y="460" width="125" height="80" as="geometry" />
        </mxCell>
        <mxCell id="RSZGaVY2ZbO_RzUHyv8u-31" style="edgeStyle=orthogonalEdgeStyle;rounded=0;orthogonalLoop=1;jettySize=auto;html=1;exitX=0;exitY=0.5;exitDx=0;exitDy=0;entryX=0.5;entryY=0;entryDx=0;entryDy=0;" edge="1" parent="1" source="RSZGaVY2ZbO_RzUHyv8u-17" target="RSZGaVY2ZbO_RzUHyv8u-15">
          <mxGeometry relative="1" as="geometry" />
        </mxCell>
        <mxCell id="RSZGaVY2ZbO_RzUHyv8u-33" style="edgeStyle=orthogonalEdgeStyle;rounded=0;orthogonalLoop=1;jettySize=auto;html=1;exitX=1;exitY=0.5;exitDx=0;exitDy=0;" edge="1" parent="1" source="RSZGaVY2ZbO_RzUHyv8u-17" target="RSZGaVY2ZbO_RzUHyv8u-32">
          <mxGeometry relative="1" as="geometry" />
        </mxCell>
        <mxCell id="RSZGaVY2ZbO_RzUHyv8u-17" value="if variabileScelta == a" style="rhombus;whiteSpace=wrap;html=1;" vertex="1" parent="1">
          <mxGeometry x="312.5" y="410" width="170" height="60" as="geometry" />
        </mxCell>
        <mxCell id="RSZGaVY2ZbO_RzUHyv8u-27" style="edgeStyle=orthogonalEdgeStyle;rounded=0;orthogonalLoop=1;jettySize=auto;html=1;exitX=0.5;exitY=1;exitDx=0;exitDy=0;entryX=0.54;entryY=-0.007;entryDx=0;entryDy=0;entryPerimeter=0;" edge="1" parent="1" source="RSZGaVY2ZbO_RzUHyv8u-24" target="RSZGaVY2ZbO_RzUHyv8u-26">
          <mxGeometry relative="1" as="geometry" />
        </mxCell>
        <mxCell id="RSZGaVY2ZbO_RzUHyv8u-24" value="Input scelta se eseguire il programma" style="shape=parallelogram;perimeter=parallelogramPerimeter;whiteSpace=wrap;html=1;fixedSize=1;" vertex="1" parent="1">
          <mxGeometry x="317.5" y="180" width="175" height="60" as="geometry" />
        </mxCell>
        <mxCell id="RSZGaVY2ZbO_RzUHyv8u-28" style="edgeStyle=orthogonalEdgeStyle;rounded=0;orthogonalLoop=1;jettySize=auto;html=1;exitX=0.5;exitY=1;exitDx=0;exitDy=0;" edge="1" parent="1" source="RSZGaVY2ZbO_RzUHyv8u-26" target="RSZGaVY2ZbO_RzUHyv8u-11">
          <mxGeometry relative="1" as="geometry" />
        </mxCell>
        <mxCell id="RSZGaVY2ZbO_RzUHyv8u-26" value="input scelta variabile&lt;br&gt;&amp;nbsp;da cui iniziare" style="shape=parallelogram;perimeter=parallelogramPerimeter;whiteSpace=wrap;html=1;fixedSize=1;" vertex="1" parent="1">
          <mxGeometry x="320" y="260" width="150" height="50" as="geometry" />
        </mxCell>
        <mxCell id="RSZGaVY2ZbO_RzUHyv8u-45" style="edgeStyle=orthogonalEdgeStyle;rounded=0;orthogonalLoop=1;jettySize=auto;html=1;exitX=0.5;exitY=1;exitDx=0;exitDy=0;entryX=1;entryY=0.5;entryDx=0;entryDy=0;" edge="1" parent="1" source="RSZGaVY2ZbO_RzUHyv8u-32" target="RSZGaVY2ZbO_RzUHyv8u-43">
          <mxGeometry relative="1" as="geometry" />
        </mxCell>
        <mxCell id="RSZGaVY2ZbO_RzUHyv8u-32" value="variabileConta = a" style="rounded=0;whiteSpace=wrap;html=1;" vertex="1" parent="1">
          <mxGeometry x="560" y="540" width="120" height="60" as="geometry" />
        </mxCell>
        <mxCell id="RSZGaVY2ZbO_RzUHyv8u-44" style="edgeStyle=orthogonalEdgeStyle;rounded=0;orthogonalLoop=1;jettySize=auto;html=1;exitX=0.5;exitY=1;exitDx=0;exitDy=0;entryX=0.5;entryY=0;entryDx=0;entryDy=0;" edge="1" parent="1" source="RSZGaVY2ZbO_RzUHyv8u-36" target="RSZGaVY2ZbO_RzUHyv8u-43">
          <mxGeometry relative="1" as="geometry" />
        </mxCell>
        <mxCell id="RSZGaVY2ZbO_RzUHyv8u-36" value="variabileConta = b" style="rounded=0;whiteSpace=wrap;html=1;" vertex="1" parent="1">
          <mxGeometry x="275" y="540" width="120" height="60" as="geometry" />
        </mxCell>
        <mxCell id="RSZGaVY2ZbO_RzUHyv8u-46" style="edgeStyle=orthogonalEdgeStyle;rounded=0;orthogonalLoop=1;jettySize=auto;html=1;exitX=0.5;exitY=1;exitDx=0;exitDy=0;entryX=0;entryY=0.5;entryDx=0;entryDy=0;" edge="1" parent="1" source="RSZGaVY2ZbO_RzUHyv8u-37" target="RSZGaVY2ZbO_RzUHyv8u-43">
          <mxGeometry relative="1" as="geometry" />
        </mxCell>
        <mxCell id="RSZGaVY2ZbO_RzUHyv8u-37" value="variabileConta = c" style="rounded=0;whiteSpace=wrap;html=1;" vertex="1" parent="1">
          <mxGeometry x="40" y="540" width="120" height="60" as="geometry" />
        </mxCell>
        <mxCell id="RSZGaVY2ZbO_RzUHyv8u-50" value="" style="edgeStyle=orthogonalEdgeStyle;rounded=0;orthogonalLoop=1;jettySize=auto;html=1;entryX=0.561;entryY=0.013;entryDx=0;entryDy=0;entryPerimeter=0;" edge="1" parent="1" source="RSZGaVY2ZbO_RzUHyv8u-43" target="RSZGaVY2ZbO_RzUHyv8u-59">
          <mxGeometry relative="1" as="geometry">
            <mxPoint x="335" y="760" as="targetPoint" />
          </mxGeometry>
        </mxCell>
        <mxCell id="RSZGaVY2ZbO_RzUHyv8u-43" value="for i = variabileConta; i &amp;lt; limiteConta ; i++" style="rhombus;whiteSpace=wrap;html=1;" vertex="1" parent="1">
          <mxGeometry x="157" y="660" width="356" height="80" as="geometry" />
        </mxCell>
        <mxCell id="RSZGaVY2ZbO_RzUHyv8u-54" style="edgeStyle=orthogonalEdgeStyle;rounded=0;orthogonalLoop=1;jettySize=auto;html=1;exitX=0.464;exitY=1.013;exitDx=0;exitDy=0;entryX=0.5;entryY=0;entryDx=0;entryDy=0;exitPerimeter=0;" edge="1" parent="1" source="RSZGaVY2ZbO_RzUHyv8u-59" target="RSZGaVY2ZbO_RzUHyv8u-53">
          <mxGeometry relative="1" as="geometry">
            <mxPoint x="335" y="820" as="sourcePoint" />
          </mxGeometry>
        </mxCell>
        <mxCell id="RSZGaVY2ZbO_RzUHyv8u-55" style="edgeStyle=orthogonalEdgeStyle;rounded=0;orthogonalLoop=1;jettySize=auto;html=1;exitX=1;exitY=0.5;exitDx=0;exitDy=0;" edge="1" parent="1" source="RSZGaVY2ZbO_RzUHyv8u-53">
          <mxGeometry relative="1" as="geometry">
            <mxPoint x="404.52941176470586" y="170" as="targetPoint" />
            <Array as="points">
              <mxPoint x="770" y="890" />
              <mxPoint x="770" y="170" />
            </Array>
          </mxGeometry>
        </mxCell>
        <mxCell id="RSZGaVY2ZbO_RzUHyv8u-58" value="" style="edgeStyle=orthogonalEdgeStyle;rounded=0;orthogonalLoop=1;jettySize=auto;html=1;" edge="1" parent="1" source="RSZGaVY2ZbO_RzUHyv8u-53" target="RSZGaVY2ZbO_RzUHyv8u-57">
          <mxGeometry relative="1" as="geometry" />
        </mxCell>
        <mxCell id="RSZGaVY2ZbO_RzUHyv8u-53" value="while non chiedi di uscire" style="rhombus;whiteSpace=wrap;html=1;" vertex="1" parent="1">
          <mxGeometry x="260" y="850" width="145" height="80" as="geometry" />
        </mxCell>
        <mxCell id="RSZGaVY2ZbO_RzUHyv8u-57" value="FINE" style="ellipse;whiteSpace=wrap;html=1;" vertex="1" parent="1">
          <mxGeometry x="292.5" y="970" width="80" height="80" as="geometry" />
        </mxCell>
        <mxCell id="RSZGaVY2ZbO_RzUHyv8u-59" value="Stampa i" style="shape=parallelogram;perimeter=parallelogramPerimeter;whiteSpace=wrap;html=1;fixedSize=1;" vertex="1" parent="1">
          <mxGeometry x="278.75" y="770" width="107.5" height="40" as="geometry" />
        </mxCell>
      </root>
    </mxGraphModel>
  </diagram>
</mxfile>
